<?xml version="1.0" encoding="utf-8"?>
<svg version="1.1" id="Layer_1" xmlns="http://www.w3.org/2000/svg" xmlns:xlink="http://www.w3.org/1999/xlink" x="0px" y="0px"
	 viewBox="0 0 612 792" style="enable-background:new 0 0 612 792;" xml:space="preserve">
<style type="text/css">
	.st0{fill:#61BFC7;}
</style>
<g>
	<g>
		<g id="XMLID_23_">
			<path id="XMLID_27_" class="st0" d="M259.5,486c-29.6-28-32.6-76.6-21.3-113.6c5.1-16.8,14.5-30.9,29.3-41
				c8.8-6,19-10.7,29.8-11.6c13-1,25.2,3.3,35.6,10.9c10.2,7.5,18.3,18.3,14.3,31.4c-3.4,11.4-13.1,20.7-22.5,27.4
				c-6.2,4.5-4.7,15.6,4.2,15.4c21.4-0.6,47.2,3,52.8,27.5c2.5,10.8,0.9,22.6-6.5,31.1c-7.2,8.2-17.5,12.6-28,14.9
				c-19,4.1-39.4,0.8-52.5-12.9c-11.6-12.2-16.1-30-16-46.9c0.2-19.1,6.4-39.3,20.1-52.6c7.6-7.4-4.1-19.1-11.7-11.7
				c-30.8,30-34.2,88.6-5.7,121.1c16.8,19.2,42.9,23.8,67,19.5c28.2-5,53.1-26,50.6-56.8c-1.3-16.8-9-32.2-23.9-40.8
				c-13.9-7.9-30.6-9.4-46.3-8.9c1.4,5.1,2.8,10.3,4.2,15.4c21.3-15.3,41.9-42.2,26.2-68.7c-8.2-13.9-23.7-24.3-38.8-29.1
				c-13.7-4.3-28.8-3.6-42.2,1.3c-21.4,7.9-40.6,24.3-50.2,45.2c-9.7,21.3-13.4,45.5-12,68.8c1.6,28.1,10.8,56.6,31.7,76.3
				C255.5,504.9,267.2,493.3,259.5,486L259.5,486z"/>
		</g>
	</g>
	<g>
		<g id="XMLID_17_">
			<path id="XMLID_21_" class="st0" d="M284.8,363.9c0.5,8.6,1.5,17,3.2,25.4c2.2,10.4,18.1,6,15.9-4.4c-1.5-7-2.2-13.9-2.6-21.1
				C300.8,353.4,284.3,353.3,284.8,363.9L284.8,363.9z"/>
		</g>
	</g>
	<g>
		<g id="XMLID_11_">
			<path id="XMLID_15_" class="st0" d="M288.7,351.7c-9.6,2.5-18.5,7.1-27.6,10.8c-4.1,1.7-7,5.5-5.8,10.2c1.1,3.9,6,7.5,10.2,5.8
				c9.1-3.7,18-8.3,27.6-10.8C303.3,364.9,299,348.9,288.7,351.7L288.7,351.7z"/>
		</g>
	</g>
</g>
</svg>
