<svg id="Layer_1" data-name="Layer 1" xmlns="http://www.w3.org/2000/svg" viewBox="0 0 2649.26 570.06"><defs><style>.cls-1{fill:#1b2f3e;}</style></defs><title>logotype_darkblue</title><path class="cls-1" d="M2475.77,462.27q-35.92,0-55.44-19.42t-19.5-55.52q0-36.09,13.66-65.22t38.42-45.3q24.75-16.16,57.75-16.16,35.92,0,55.42,19.42t19.52,55.52q0,36.09-13.67,65.23t-38.41,45.28q-24.75,16.16-57.75,16.16h0Zm27.16-151.59q-14.1,0-24.16,24t-10,54.91q0,22.86,14.44,22.86,13.92,0,24.23-23.89t10.31-55q0-11.34-4-17.09a12.45,12.45,0,0,0-10.83-5.77h0Zm0,0"/><path class="cls-1" d="M2352.68,459.21h-66.52l41.08-195h66.86Zm-17.36-237.9q0-17.7,10.22-26.81t28.63-9.11q15.64,0,24.14,6.28t8.51,18q0,17.19-10,26.56t-28.7,9.36q-32.83,0-32.83-24.23h0Zm0,0"/><path class="cls-1" d="M2184.82,260.33c8.59,0,15.81,1.63,21.66,5.13s12.2,10.75,19.08,20.75h1.38l0.34-6.23c0.8-15.81,2.23-28.11,4.3-37.16l10.66-51.6h67.2l-56.72,267H2199.6l1.72-21h-1.37c-6.53,9-13.41,15.49-20.62,19.16s-15.7,5.54-25.44,5.54q-27.16,0-41.25-19.14t-14.09-55.08q0-30.59,12.28-62.39t31.55-48.37q19.25-16.59,42.45-16.59h0Zm-3.61,148.16q8.59,0,16.41-10t12.47-26.91a123.86,123.86,0,0,0,4.64-33q0-24.75-13.75-24.75-8.43,0-16.5,10.14t-13.06,26.73a114.93,114.93,0,0,0-5,33.25q0,24.58,14.78,24.58h0Zm0,0"/><path class="cls-1" d="M1980.32,408.82q8.59,0,16.41-10t12.47-26.91a123.87,123.87,0,0,0,4.64-33q0-11.17-3.44-18t-10.66-6.8q-13.07,0-23.64,21.75t-10.56,48.38q0,24.58,14.78,24.58h0Zm71.5,50.39h-53.11l1.72-22h-1.37c-6.42,9-13.35,15.52-20.8,19.24a55.86,55.86,0,0,1-25.27,5.7c-18.1,0-31.85-6.32-41.25-19.1s-14.09-31.11-14.09-55.06q0-30.76,12.55-62.72T1941.9,277q19.17-16.32,42.38-16.32a49.38,49.38,0,0,1,25.44,6.48c7.33,4.29,13.86,11.07,19.59,21.07h1.37l9.11-24h53.28Zm0-.37"/><path class="cls-1" d="M1764.3,367.21l-19.42,92h-67.2l53.11-252h66.52c28.88,0,51,5.9,66.34,17.36s23,28.79,23,51.82q0,26.81-12.2,46.79t-36.27,30.44l38.5,88.88,6.87,16.7h-73.22l-33.52-92H1764.3Zm10.83-51h8.77c10.88,0,19.54-3,26-9.29s9.63-15,9.63-26.18c0-7.1-2-12.37-5.94-16.09s-9.7-5.44-17.27-5.44h-9.11Zm0,0.14"/><path class="cls-1" d="M1573,462.27q-36.44,0-56.72-20.36T1496,385.27q0-36.26,14.34-65.39t39.36-44.17q25-15,57.84-15,32.65,0,51.39,14.78t18.73,39.36q0,34.55-26.91,53T1573,386.21h-9.69v2.85c0,17,9.17,25.44,28,25.44a88.74,88.74,0,0,0,26.47-4,174.39,174.39,0,0,0,29.57-12.81v47.09c-13,6.53-24.75,11.09-35.86,13.67s-23.89,3.86-38.44,3.86h0Zm27.16-156.58c-7,0-13.52,4.23-19.59,12.2a52.59,52.59,0,0,0-11,27.31h5c12.49,0,22.29-2.62,29.39-7.37s10.66-11.16,10.66-19a13.47,13.47,0,0,0-3.44-9.34c-2.29-2.52-6-3.84-11-3.84h0Zm0,0"/><path class="cls-1" d="M1402.83,462.27q-34.21,0-53.37-20.7t-19.16-58.7q0-34.55,13.14-62.64t37-43.83q23.81-15.73,54.06-15.73a147.79,147.79,0,0,1,63.08,13.75l-21.14,49.33q-22.86-10.31-38.67-10.31-10.66,0-19.77,8.25t-15,24.67a95.56,95.56,0,0,0-5.84,32.22q0,15.64,5.16,23t16.33,7.3a73.81,73.81,0,0,0,24-4A188.5,188.5,0,0,0,1467.31,394v52.77a122.28,122.28,0,0,1-29,11.52q-15.2,3.95-35.5,4h0Zm0,0"/><path class="cls-1" d="M1281.86,459.21h-66.52l41.08-195h66.86Zm-17.36-237.9q0-17.7,10.22-26.81t28.63-9.11q15.64,0,24.14,6.28t8.52,18q0,17.19-10,26.56t-28.7,9.36q-32.83,0-32.83-24.23h0Zm0,0"/><path class="cls-1" d="M1061,459.21l-24.92-195h66.17l4.64,103.68a119.81,119.81,0,0,1-1.37,20.32h1.38c0.11-2,1.15-5.3,3.09-10.92a165.56,165.56,0,0,1,6.19-15.46c2.18-4.7,17.36-37.62,45.55-97.62h71.16l-105.19,195H1061Zm0-.37"/><path class="cls-1" d="M909.56,462.21c-24.29,0-42.2-6.75-55.72-20.33s-20.28-32.44-20.28-56.62,4.78-46,14.34-65.38,22.69-34.14,39.36-44.17,36-15,57.84-15,38.9,4.93,51.39,14.78,18.73,23,18.73,39.36q0,34.55-26.91,53t-77.77,18.42H900.31v2.85c0,17,9.45,25.44,28.24,25.44a91.11,91.11,0,0,0,26.83-4,176.69,176.69,0,0,0,29.93-12.81v47.09c-13,6.53-25,11.06-36.09,13.64s-24.11,3.83-38.66,3.83h-1ZM937.72,305.7c-7,0-13.52,4.23-19.59,12.2a52.59,52.59,0,0,0-11,27.31h5c12.49,0,22.28-2.62,29.39-7.37s10.66-11.16,10.66-19a13.47,13.47,0,0,0-3.44-9.34c-2.29-2.52-6-3.84-11-3.84h0Zm0,0"/><path class="cls-1" d="M815.13,302.6q0,48.13-17,83.45c-11.34,23.54-27.82,41.74-49.42,54.23S701.52,459.21,672,459.21H591l53.11-252h71.5c31.63,0,56.11,8.45,73.47,25s26,40.13,26,70.38h0Zm-133,100.61a52.22,52.22,0,0,0,33.77-12.06q14.87-12,23.13-34.3t8.25-50.8c0-14.32-3.09-25.27-9.28-32.65s-14.84-11.19-26-11.19H699.8l-29.56,141h11.86Zm0-.06"/><path class="cls-1" d="M362.26,286a51.08,51.08,0,1,0-51.08,51.14A51.11,51.11,0,0,0,362.26,286"/><path class="cls-1" d="M461.88,260.21A153.33,153.33,0,0,0,336.35,134.65l0,52.17a102.56,102.56,0,0,1,73.37,73.38h52.18Zm0,0.37"/><path class="cls-1" d="M564.88,261.21A255.11,255.11,0,0,0,336.33,32.08V83.66A204.34,204.34,0,0,1,513.47,261.21h51.41Zm0-.48"/><path class="cls-1" d="M513.91,311.65l0.06-.08a205.12,205.12,0,0,1-12.75,49.68L535.13,409l-28.95,42.2-56.72-14.55,0.1,0a204.86,204.86,0,0,1-41.73,29.65l-4.91,58.41L353.6,538.22l-33.93-47.77,0.09,0a204.59,204.59,0,0,1-51-4.32l-41.41,41.43L181,506l4.89-58.41,0,0.09a204.69,204.69,0,0,1-36.15-36.26L91.4,416.35,69.88,369.91l41.4-41.44,0,0.1A205.1,205.1,0,0,1,107,277.51l-47.7-34,13.52-49.37,58.34-4.89-0.09.06a204.79,204.79,0,0,1,29.7-41.72L146.29,90.81l42.16-29,47.71,34H235.9a208,208,0,0,1,49.42-12.67v77.69c-69,14.12-113.53,81.66-99.42,150.84a127.77,127.77,0,0,0,250.4,0Zm0,0"/></svg>